<svg xmlns="http://www.w3.org/2000/svg" width="21.522" height="24.597" viewBox="0 0 21.522 24.597">
  <path id="Icon_awesome-calendar" data-name="Icon awesome-calendar" d="M.576,9.224h20.37a.578.578,0,0,1,.576.576V22.291A2.307,2.307,0,0,1,19.217,24.6H2.306A2.307,2.307,0,0,1,0,22.291V9.8A.578.578,0,0,1,.576,9.224ZM21.522,7.11V5.381a2.307,2.307,0,0,0-2.306-2.306H16.911V.576A.578.578,0,0,0,16.334,0H14.412a.578.578,0,0,0-.576.576v2.5H7.687V.576A.578.578,0,0,0,7.11,0H5.188a.578.578,0,0,0-.576.576v2.5H2.306A2.307,2.307,0,0,0,0,5.381V7.11a.578.578,0,0,0,.576.576h20.37A.578.578,0,0,0,21.522,7.11Z" fill="#4e4e51"/>
</svg>
