<svg xmlns="http://www.w3.org/2000/svg" width="25.431" height="22.606" viewBox="0 0 25.431 22.606">
  <path id="Icon_awesome-charging-station" data-name="Icon awesome-charging-station" d="M14.835,19.78H.706A.706.706,0,0,0,0,20.486V21.9a.706.706,0,0,0,.706.706H14.835a.706.706,0,0,0,.706-.706V20.486A.706.706,0,0,0,14.835,19.78ZM24.018,5.651V3.532a.706.706,0,0,0-1.413,0V5.651H21.193V3.532a.706.706,0,0,0-1.413,0V5.651h-.706a.706.706,0,0,0-.706.706V7.771a3.52,3.52,0,0,0,2.472,3.352v5.232a1.286,1.286,0,0,1-1.027,1.289,1.238,1.238,0,0,1-1.446-1.219V15.188A3.885,3.885,0,0,0,14.482,11.3h-.353V2.826A2.825,2.825,0,0,0,11.3,0H4.239A2.825,2.825,0,0,0,1.413,2.826V18.367H14.128V13.422h.353a1.766,1.766,0,0,1,1.766,1.766v1.087a3.457,3.457,0,0,0,3.02,3.488,3.359,3.359,0,0,0,3.691-3.339v-5.3a3.52,3.52,0,0,0,2.472-3.352V6.358a.706.706,0,0,0-.706-.706h-.706ZM11.483,7.76,7.346,13.9a.547.547,0,0,1-.459.231.483.483,0,0,1-.515-.57L7.389,9.89H4.768a.49.49,0,0,1-.525-.525L4.95,4.641a.511.511,0,0,1,.525-.4h3a.481.481,0,0,1,.512.583L8.477,7.064h2.548A.467.467,0,0,1,11.483,7.76Z" fill="#4e4e51"/>
</svg>
