<svg xmlns="http://www.w3.org/2000/svg" width="21.522" height="19.867" viewBox="0 0 21.522 19.867">
  <g id="Icon_ionic-ios-wallet" data-name="Icon ionic-ios-wallet" transform="translate(-3.375 -4.499)">
    <path id="Path_7" data-name="Path 7" d="M21.793,11.25H6.479a3.107,3.107,0,0,0-3.1,3.1v8.692a3.107,3.107,0,0,0,3.1,3.1H21.793a3.107,3.107,0,0,0,3.1-3.1V14.354A3.107,3.107,0,0,0,21.793,11.25Z" transform="translate(0 -1.783)" fill="#4e4e51"/>
    <path id="Path_8" data-name="Path 8" d="M18.929,4.552,6.776,6.926C5.845,7.133,4.5,8.07,4.5,9.208a3.26,3.26,0,0,1,2.535-.983H21.884V7.164a2.971,2.971,0,0,0-.719-1.945h0A2.447,2.447,0,0,0,18.929,4.552Z" transform="translate(-0.297)" fill="#4e4e51"/>
  </g>
</svg>
