<svg xmlns="http://www.w3.org/2000/svg" width="21.433" height="21.433" viewBox="0 0 21.433 21.433">
  <path id="Icon_material-account-circle" data-name="Icon material-account-circle" d="M13.716,3A10.716,10.716,0,1,0,24.433,13.716,10.72,10.72,0,0,0,13.716,3Zm0,3.215A3.215,3.215,0,1,1,10.5,9.43,3.211,3.211,0,0,1,13.716,6.215Zm0,15.217a7.716,7.716,0,0,1-6.43-3.451c.032-2.133,4.287-3.3,6.43-3.3s6.4,1.168,6.43,3.3A7.716,7.716,0,0,1,13.716,21.432Z" transform="translate(-3 -3)" fill="#4e4e51"/>
</svg>
